solid Default
  facet normal 0.000000e+00 -1.000000e+00 1.224647e-16
    outer loop
      vertex -3.398100e+00 -1.024749e+01 1.500000e+00
      vertex 3.398100e+00 -1.024749e+01 5.990273e+00
      vertex -3.398100e+00 -1.024749e+01 5.990273e+00
    endloop
  endfacet
  facet normal 0.000000e+00 1.000000e+00 -1.224647e-16
    outer loop
      vertex 3.398100e+00 1.024749e+01 1.500013e+00
      vertex -3.398100e+00 1.024749e+01 5.990286e+00
      vertex 3.398100e+00 1.024749e+01 5.990286e+00
    endloop
  endfacet
  facet normal 1.000000e+00 0.000000e+00 0.000000e+00
    outer loop
      vertex 6.000000e+00 -1.024749e+01 1.500000e+00
      vertex 6.000000e+00 1.024749e+01 1.335144e-05
      vertex 6.000000e+00 1.024749e+01 1.500013e+00
    endloop
  endfacet
  facet normal -1.000000e+00 -0.000000e+00 0.000000e+00
    outer loop
      vertex -6.000000e+00 -1.024749e+01 1.500000e+00
      vertex -6.000000e+00 1.024749e+01 1.335144e-05
      vertex -6.000000e+00 -1.024749e+01 0.000000e+00
    endloop
  endfacet
  facet normal 0.000000e+00 -6.514493e-07 1.000000e+00
    outer loop
      vertex 6.000000e+00 -1.024749e+01 1.500000e+00
      vertex 3.398100e+00 1.024749e+01 1.500013e+00
      vertex 3.398100e+00 -1.024749e+01 1.500000e+00
    endloop
  endfacet
  facet normal 0.000000e+00 -6.514493e-07 1.000000e+00
    outer loop
      vertex -6.000000e+00 1.024749e+01 1.500013e+00
      vertex -3.398100e+00 -1.024749e+01 1.500000e+00
      vertex -3.398100e+00 1.024749e+01 1.500013e+00
    endloop
  endfacet
  facet normal 4.674365e-06 2.442068e-06 -1.000000e+00
    outer loop
      vertex -2.178120e+00 1.983910e-01 6.675720e-06
      vertex -6.000000e+00 1.024749e+01 1.335144e-05
      vertex -2.089846e+00 4.199448e-01 7.629395e-06
    endloop
  endfacet
  facet normal 0.000000e+00 -6.114028e-07 1.000000e+00
    outer loop
      vertex 1.931828e+00 -4.008236e+00 5.990276e+00
      vertex -3.398100e+00 -1.024749e+01 5.990273e+00
      vertex 3.398100e+00 -1.024749e+01 5.990273e+00
    endloop
  endfacet
  facet normal 0.000000e+00 -6.577936e-07 1.000000e+00
    outer loop
      vertex 1.931828e+00 2.998451e+00 5.990281e+00
      vertex -3.398100e+00 1.024749e+01 5.990286e+00
      vertex -2.113485e+00 2.998451e+00 5.990281e+00
    endloop
  endfacet
  facet normal -9.985334e-01 5.413981e-02 -7.253981e-08
    outer loop
      vertex 2.098850e+00 -7.430344e-01 2.847092e+00
      vertex 2.111761e+00 -5.048981e-01 6.675720e-06
      vertex 2.098850e+00 -7.430382e-01 6.675720e-06
    endloop
  endfacet
  facet normal -9.868268e-01 1.617803e-01 -2.167630e-07
    outer loop
      vertex 2.060266e+00 -9.783859e-01 2.847092e+00
      vertex 2.098850e+00 -7.430382e-01 6.675720e-06
      vertex 2.060266e+00 -9.783897e-01 5.722046e-06
    endloop
  endfacet
  facet normal -9.635497e-01 2.675294e-01 -3.584520e-07
    outer loop
      vertex 1.996463e+00 -1.208183e+00 2.847092e+00
      vertex 2.060266e+00 -9.783897e-01 5.722046e-06
      vertex 1.996463e+00 -1.208187e+00 5.722046e-06
    endloop
  endfacet
  facet normal -9.289770e-01 3.701376e-01 -4.959327e-07
    outer loop
      vertex 1.908188e+00 -1.429737e+00 2.847092e+00
      vertex 1.996463e+00 -1.208187e+00 5.722046e-06
      vertex 1.908188e+00 -1.429741e+00 5.722046e-06
    endloop
  endfacet
  facet normal -8.835140e-01 4.684047e-01 -6.275968e-07
    outer loop
      vertex 1.796476e+00 -1.640450e+00 2.847092e+00
      vertex 1.908188e+00 -1.429741e+00 5.722046e-06
      vertex 1.796476e+00 -1.640453e+00 5.722046e-06
    endloop
  endfacet
  facet normal -8.276869e-01 5.611901e-01 -7.519163e-07
    outer loop
      vertex 1.662638e+00 -1.837845e+00 2.847092e+00
      vertex 1.796476e+00 -1.640453e+00 5.722046e-06
      vertex 1.662638e+00 -1.837849e+00 5.722046e-06
    endloop
  endfacet
  facet normal -7.621639e-01 6.473840e-01 -8.674041e-07
    outer loop
      vertex 1.508242e+00 -2.019615e+00 2.847092e+00
      vertex 1.662638e+00 -1.837849e+00 5.722046e-06
      vertex 1.508242e+00 -2.019619e+00 5.722046e-06
    endloop
  endfacet
  facet normal -6.876959e-01 7.259988e-01 -9.727369e-07
    outer loop
      vertex 1.335098e+00 -2.183624e+00 2.847092e+00
      vertex 1.508242e+00 -2.019619e+00 5.722046e-06
      vertex 1.335098e+00 -2.183628e+00 5.722046e-06
    endloop
  endfacet
  facet normal -6.051744e-01 7.960929e-01 -1.066653e-06
    outer loop
      vertex 1.145236e+00 -2.327953e+00 2.847092e+00
      vertex 1.335098e+00 -2.183628e+00 5.722046e-06
      vertex 1.145236e+00 -2.327957e+00 5.722046e-06
    endloop
  endfacet
  facet normal -3.193094e-01 9.476505e-01 -1.269719e-06
    outer loop
      vertex 4.984264e-01 -2.627201e+00 2.847092e+00
      vertex 7.244337e-01 -2.551052e+00 4.768372e-06
      vertex 4.984264e-01 -2.627205e+00 4.768372e-06
    endloop
  endfacet
  facet normal -5.155538e-01 8.568572e-01 -1.148068e-06
    outer loop
      vertex 9.408829e-01 -2.450909e+00 2.847092e+00
      vertex 1.145236e+00 -2.327957e+00 5.722046e-06
      vertex 9.408829e-01 -2.450912e+00 4.768372e-06
    endloop
  endfacet
  facet normal -4.198875e-01 9.075762e-01 -1.216025e-06
    outer loop
      vertex 7.244337e-01 -2.551048e+00 2.847092e+00
      vertex 9.408829e-01 -2.450912e+00 4.768372e-06
      vertex 7.244337e-01 -2.551052e+00 4.768372e-06
    endloop
  endfacet
  facet normal -2.149589e-01 9.766231e-01 -1.308538e-06
    outer loop
      vertex 2.655108e-01 -2.678467e+00 2.847092e+00
      vertex 4.984264e-01 -2.627205e+00 4.768372e-06
      vertex 2.655108e-01 -2.678471e+00 4.768372e-06
    endloop
  endfacet
  facet normal -1.081268e-01 9.941371e-01 -1.332004e-06
    outer loop
      vertex 2.841735e-02 -2.704254e+00 2.847092e+00
      vertex 2.655108e-01 -2.678471e+00 4.768372e-06
      vertex 2.841735e-02 -2.704258e+00 4.768372e-06
    endloop
  endfacet
  facet normal 0.000000e+00 1.000000e+00 -1.339860e-06
    outer loop
      vertex 2.841735e-02 -2.704254e+00 2.847092e+00
      vertex -2.100742e-01 -2.704258e+00 4.768372e-06
      vertex -2.100742e-01 -2.704254e+00 2.847092e+00
    endloop
  endfacet
  facet normal 1.081268e-01 9.941371e-01 -1.331819e-06
    outer loop
      vertex -2.100742e-01 -2.704254e+00 2.847092e+00
      vertex -4.471676e-01 -2.678471e+00 4.768372e-06
      vertex -4.471676e-01 -2.678467e+00 2.847092e+00
    endloop
  endfacet
  facet normal 2.149587e-01 9.766232e-01 -1.308506e-06
    outer loop
      vertex -4.471676e-01 -2.678467e+00 2.847092e+00
      vertex -6.800835e-01 -2.627205e+00 4.768372e-06
      vertex -6.800835e-01 -2.627201e+00 2.847092e+00
    endloop
  endfacet
  facet normal 3.193097e-01 9.476504e-01 -1.270096e-06
    outer loop
      vertex -6.800835e-01 -2.627201e+00 2.847092e+00
      vertex -9.060905e-01 -2.551052e+00 4.768372e-06
      vertex -9.060905e-01 -2.551048e+00 2.847092e+00
    endloop
  endfacet
  facet normal 4.198875e-01 9.075762e-01 -1.217978e-06
    outer loop
      vertex -9.060905e-01 -2.551048e+00 2.847092e+00
      vertex -1.122540e+00 -2.450912e+00 4.768372e-06
      vertex -1.122540e+00 -2.450909e+00 2.847092e+00
    endloop
  endfacet
  facet normal 8.276865e-01 5.611908e-01 -7.516387e-07
    outer loop
      vertex -1.844294e+00 -1.837845e+00 2.847092e+00
      vertex -1.978133e+00 -1.640453e+00 5.722046e-06
      vertex -1.978133e+00 -1.640450e+00 2.847092e+00
    endloop
  endfacet
  facet normal 7.621642e-01 6.473837e-01 -8.668466e-07
    outer loop
      vertex -1.689898e+00 -2.019615e+00 2.847092e+00
      vertex -1.844294e+00 -1.837849e+00 5.722046e-06
      vertex -1.844294e+00 -1.837845e+00 2.847092e+00
    endloop
  endfacet
  facet normal 8.835140e-01 4.684047e-01 -5.736303e-17
    outer loop
      vertex -2.089844e+00 -1.429741e+00 2.847092e+00
      vertex -1.978133e+00 -1.640453e+00 5.722046e-06
      vertex -2.089844e+00 -1.429741e+00 5.722046e-06
    endloop
  endfacet
  facet normal 9.289770e-01 3.701376e-01 -4.965167e-07
    outer loop
      vertex -2.089844e+00 -1.429741e+00 2.847092e+00
      vertex -2.178119e+00 -1.208191e+00 5.722046e-06
      vertex -2.178119e+00 -1.208187e+00 2.847092e+00
    endloop
  endfacet
  facet normal 9.635503e-01 2.675271e-01 -3.593544e-07
    outer loop
      vertex -2.178119e+00 -1.208187e+00 2.847092e+00
      vertex -2.241923e+00 -9.783897e-01 5.722046e-06
      vertex -2.241923e+00 -9.783859e-01 2.847092e+00
    endloop
  endfacet
  facet normal 9.868262e-01 1.617838e-01 -2.167142e-07
    outer loop
      vertex -2.241923e+00 -9.783859e-01 2.847092e+00
      vertex -2.280507e+00 -7.430420e-01 6.675720e-06
      vertex -2.280507e+00 -7.430382e-01 2.847092e+00
    endloop
  endfacet
  facet normal 9.985334e-01 5.413894e-02 -6.630108e-18
    outer loop
      vertex -2.293419e+00 -5.048981e-01 2.847092e+00
      vertex -2.280507e+00 -7.430420e-01 6.675720e-06
      vertex -2.293419e+00 -5.048981e-01 6.675720e-06
    endloop
  endfacet
  facet normal 5.155539e-01 8.568572e-01 -1.149398e-06
    outer loop
      vertex -1.122540e+00 -2.450909e+00 2.847092e+00
      vertex -1.326893e+00 -2.327957e+00 5.722046e-06
      vertex -1.326893e+00 -2.327953e+00 2.847092e+00
    endloop
  endfacet
  facet normal 6.051750e-01 7.960925e-01 -1.067103e-06
    outer loop
      vertex -1.326893e+00 -2.327953e+00 2.847092e+00
      vertex -1.516754e+00 -2.183628e+00 5.722046e-06
      vertex -1.516754e+00 -2.183624e+00 2.847092e+00
    endloop
  endfacet
  facet normal 6.876962e-01 7.259986e-01 -9.738377e-07
    outer loop
      vertex -1.516754e+00 -2.183624e+00 2.847092e+00
      vertex -1.689898e+00 -2.019619e+00 5.722046e-06
      vertex -1.689898e+00 -2.019615e+00 2.847092e+00
    endloop
  endfacet
  facet normal -1.000000e+00 -0.000000e+00 0.000000e+00
    outer loop
      vertex -3.398100e+00 7.734337e-01 2.847092e+00
      vertex -3.398100e+00 1.024749e+01 5.990286e+00
      vertex -3.398100e+00 1.024749e+01 1.500013e+00
    endloop
  endfacet
  facet normal 7.621585e-01 -6.473905e-01 8.668588e-07
    outer loop
      vertex -1.844297e+00 8.280563e-01 2.847092e+00
      vertex -1.689901e+00 1.009819e+00 7.629395e-06
      vertex -1.689901e+00 1.009823e+00 2.847092e+00
    endloop
  endfacet
  facet normal 6.877036e-01 -7.259915e-01 9.710831e-07
    outer loop
      vertex -1.689901e+00 1.009823e+00 2.847092e+00
      vertex -1.516757e+00 1.173832e+00 7.629395e-06
      vertex -1.516757e+00 1.173836e+00 2.847092e+00
    endloop
  endfacet
  facet normal 6.051749e-01 -7.960925e-01 9.749321e-17
    outer loop
      vertex -1.326895e+00 1.318161e+00 2.847092e+00
      vertex -1.516757e+00 1.173832e+00 7.629395e-06
      vertex -1.326895e+00 1.318161e+00 7.629395e-06
    endloop
  endfacet
  facet normal 8.276924e-01 -5.611820e-01 7.516300e-07
    outer loop
      vertex -1.978135e+00 6.306572e-01 2.847092e+00
      vertex -1.844297e+00 8.280525e-01 7.629395e-06
      vertex -1.844297e+00 8.280563e-01 2.847092e+00
    endloop
  endfacet
  facet normal 8.835105e-01 -4.684113e-01 6.281954e-07
    outer loop
      vertex -2.089846e+00 4.199486e-01 2.847092e+00
      vertex -1.978135e+00 6.306534e-01 7.629395e-06
      vertex -1.978135e+00 6.306572e-01 2.847092e+00
    endloop
  endfacet
  facet normal 9.289783e-01 -3.701341e-01 4.965178e-07
    outer loop
      vertex -2.178120e+00 1.983948e-01 2.847092e+00
      vertex -2.089846e+00 4.199448e-01 7.629395e-06
      vertex -2.089846e+00 4.199486e-01 2.847092e+00
    endloop
  endfacet
  facet normal 9.985334e-01 -5.413894e-02 7.235112e-08
    outer loop
      vertex -2.293419e+00 -5.048981e-01 2.847092e+00
      vertex -2.280507e+00 -2.667580e-01 6.675720e-06
      vertex -2.280507e+00 -2.667542e-01 2.847092e+00
    endloop
  endfacet
  facet normal 9.868273e-01 -1.617774e-01 1.981202e-17
    outer loop
      vertex -2.241924e+00 -3.140640e-02 2.847092e+00
      vertex -2.280507e+00 -2.667580e-01 6.675720e-06
      vertex -2.241924e+00 -3.140640e-02 6.675720e-06
    endloop
  endfacet
  facet normal 9.635503e-01 -2.675271e-01 3.593545e-07
    outer loop
      vertex -2.241924e+00 -3.140640e-02 2.847092e+00
      vertex -2.178120e+00 1.983910e-01 6.675720e-06
      vertex -2.178120e+00 1.983948e-01 2.847092e+00
    endloop
  endfacet
  facet normal -4.199193e-01 -9.075614e-01 2.432013e-06
    outer loop
      vertex 9.408798e-01 1.441124e+00 2.847092e+00
      vertex 8.327105e-01 1.491165e+00 7.629395e-06
      vertex 9.408798e-01 1.441116e+00 7.629395e-06
    endloop
  endfacet
  facet normal -4.198820e-01 -9.075787e-01 -9.226164e-07
    outer loop
      vertex 8.047025e-01 1.504120e+00 2.847092e+00
      vertex 7.244306e-01 1.541260e+00 7.629395e-06
      vertex 8.327105e-01 1.491165e+00 7.629395e-06
    endloop
  endfacet
  facet normal -3.192951e-01 -9.476553e-01 1.160543e-16
    outer loop
      vertex 7.244306e-01 1.541260e+00 2.847092e+00
      vertex 4.984233e-01 1.617409e+00 7.629395e-06
      vertex 7.244306e-01 1.541260e+00 7.629395e-06
    endloop
  endfacet
  facet normal -1.081268e-01 -9.941371e-01 1.217467e-16
    outer loop
      vertex 2.655075e-01 1.668678e+00 2.847092e+00
      vertex 2.841401e-02 1.694466e+00 7.629395e-06
      vertex 2.655075e-01 1.668678e+00 7.629395e-06
    endloop
  endfacet
  facet normal 1.081268e-01 -9.941371e-01 1.217467e-16
    outer loop
      vertex -4.471710e-01 1.668678e+00 2.847092e+00
      vertex -2.100775e-01 1.694466e+00 7.629395e-06
      vertex -2.100775e-01 1.694466e+00 2.847092e+00
    endloop
  endfacet
  facet normal 5.155547e-01 -8.568566e-01 1.049347e-16
    outer loop
      vertex -1.326895e+00 1.318161e+00 2.847092e+00
      vertex -1.122543e+00 1.441116e+00 7.629395e-06
      vertex -1.122543e+00 1.441116e+00 2.847092e+00
    endloop
  endfacet
  facet normal 4.198827e-01 -9.075783e-01 9.318717e-07
    outer loop
      vertex -1.042271e+00 1.478256e+00 2.847092e+00
      vertex -1.122543e+00 1.441116e+00 7.629395e-06
      vertex -1.014263e+00 1.491211e+00 7.629395e-06
    endloop
  endfacet
  facet normal 4.198673e-01 -9.075855e-01 2.432077e-06
    outer loop
      vertex -9.060938e-01 1.541260e+00 2.847092e+00
      vertex -1.014263e+00 1.491211e+00 7.629395e-06
      vertex -9.060938e-01 1.541252e+00 7.629395e-06
    endloop
  endfacet
  facet normal 3.193494e-01 -9.476370e-01 1.947840e-06
    outer loop
      vertex -8.222773e-01 1.569504e+00 2.847092e+00
      vertex -9.060938e-01 1.541252e+00 7.629395e-06
      vertex -7.930324e-01 1.579353e+00 7.629395e-06
    endloop
  endfacet
  facet normal 3.192981e-01 -9.476543e-01 1.160542e-16
    outer loop
      vertex -6.800866e-01 1.617409e+00 2.847092e+00
      vertex -7.930324e-01 1.579353e+00 7.629395e-06
      vertex -6.800866e-01 1.617409e+00 7.629395e-06
    endloop
  endfacet
  facet normal 2.149741e-01 -9.766197e-01 1.196014e-16
    outer loop
      vertex -6.800866e-01 1.617409e+00 2.847092e+00
      vertex -4.471710e-01 1.668678e+00 7.629395e-06
      vertex -4.471710e-01 1.668678e+00 2.847092e+00
    endloop
  endfacet
  facet normal 0.000000e+00 -1.000000e+00 1.224647e-16
    outer loop
      vertex 2.841401e-02 1.694466e+00 2.847092e+00
      vertex -2.100775e-01 1.694466e+00 7.629395e-06
      vertex 2.841401e-02 1.694466e+00 7.629395e-06
    endloop
  endfacet
  facet normal -2.149739e-01 -9.766198e-01 1.196014e-16
    outer loop
      vertex 4.984233e-01 1.617409e+00 2.847092e+00
      vertex 2.655075e-01 1.668678e+00 7.629395e-06
      vertex 4.984233e-01 1.617409e+00 7.629395e-06
    endloop
  endfacet
  facet normal 1.000000e+00 0.000000e+00 0.000000e+00
    outer loop
      vertex 3.398100e+00 4.587975e-01 2.847092e+00
      vertex 3.398100e+00 1.024749e+01 5.990286e+00
      vertex 3.398100e+00 4.587975e-01 5.990280e+00
    endloop
  endfacet
  facet normal -7.621632e-01 -6.473849e-01 8.674059e-07
    outer loop
      vertex 1.662635e+00 8.280602e-01 2.847092e+00
      vertex 1.508239e+00 1.009827e+00 7.629395e-06
      vertex 1.662635e+00 8.280563e-01 7.629395e-06
    endloop
  endfacet
  facet normal -6.876959e-01 -7.259988e-01 9.727377e-07
    outer loop
      vertex 1.508239e+00 1.009830e+00 2.847092e+00
      vertex 1.335095e+00 1.173836e+00 7.629395e-06
      vertex 1.508239e+00 1.009827e+00 7.629395e-06
    endloop
  endfacet
  facet normal -6.051643e-01 -7.961006e-01 1.066664e-06
    outer loop
      vertex 1.335095e+00 1.173840e+00 2.847092e+00
      vertex 1.145233e+00 1.318161e+00 7.629395e-06
      vertex 1.335095e+00 1.173836e+00 7.629395e-06
    endloop
  endfacet
  facet normal -5.155534e-01 -8.568574e-01 2.296140e-06
    outer loop
      vertex 1.145233e+00 1.318169e+00 2.847092e+00
      vertex 9.408798e-01 1.441116e+00 7.629395e-06
      vertex 1.145233e+00 1.318161e+00 7.629395e-06
    endloop
  endfacet
  facet normal -9.868261e-01 -1.617848e-01 2.167691e-07
    outer loop
      vertex 2.098849e+00 -2.667465e-01 2.847092e+00
      vertex 2.060265e+00 -3.140259e-02 6.675720e-06
      vertex 2.098849e+00 -2.667503e-01 6.675720e-06
    endloop
  endfacet
  facet normal -9.635492e-01 -2.675312e-01 3.593601e-07
    outer loop
      vertex 1.996461e+00 1.983986e-01 2.847092e+00
      vertex 2.060265e+00 -3.140259e-02 6.675720e-06
      vertex 2.060265e+00 -3.139877e-02 2.847092e+00
    endloop
  endfacet
  facet normal -9.289742e-01 -3.701444e-01 4.532962e-17
    outer loop
      vertex 1.996461e+00 1.983986e-01 2.847092e+00
      vertex 1.908186e+00 4.199486e-01 7.629395e-06
      vertex 1.996461e+00 1.983986e-01 6.675720e-06
    endloop
  endfacet
  facet normal -9.985334e-01 -5.414007e-02 7.254015e-08
    outer loop
      vertex 2.111761e+00 -5.048943e-01 2.847092e+00
      vertex 2.098849e+00 -2.667503e-01 6.675720e-06
      vertex 2.111761e+00 -5.048981e-01 6.675720e-06
    endloop
  endfacet
  facet normal -8.276864e-01 -5.611908e-01 7.519178e-07
    outer loop
      vertex 1.796474e+00 6.306648e-01 2.847092e+00
      vertex 1.662635e+00 8.280563e-01 7.629395e-06
      vertex 1.796474e+00 6.306610e-01 7.629395e-06
    endloop
  endfacet
  facet normal -8.835132e-01 -4.684062e-01 6.275993e-07
    outer loop
      vertex 1.908186e+00 4.199524e-01 2.847092e+00
      vertex 1.796474e+00 6.306610e-01 7.629395e-06
      vertex 1.908186e+00 4.199486e-01 7.629395e-06
    endloop
  endfacet
  facet normal 0.000000e+00 1.224647e-16 1.000000e+00
    outer loop
      vertex -2.089846e+00 4.199486e-01 2.847092e+00
      vertex -3.398100e+00 7.734337e-01 2.847092e+00
      vertex -2.178120e+00 1.983948e-01 2.847092e+00
    endloop
  endfacet
  facet normal 8.660253e-01 -5.000001e-01 6.123236e-17
    outer loop
      vertex -2.113485e+00 2.998451e+00 2.847092e+00
      vertex -3.398100e+00 7.734337e-01 5.990280e+00
      vertex -3.398100e+00 7.734337e-01 2.847092e+00
    endloop
  endfacet
  facet normal 0.000000e+00 -1.000000e+00 1.224647e-16
    outer loop
      vertex 1.931828e+00 2.998451e+00 5.990281e+00
      vertex -2.113485e+00 2.998451e+00 2.847092e+00
      vertex 1.931828e+00 2.998451e+00 2.847092e+00
    endloop
  endfacet
  facet normal 8.660254e-01 5.000000e-01 -6.123234e-17
    outer loop
      vertex -2.113486e+00 -4.008236e+00 5.990276e+00
      vertex -3.398100e+00 -1.783218e+00 2.847092e+00
      vertex -3.398100e+00 -1.783218e+00 5.990278e+00
    endloop
  endfacet
  facet normal 0.000000e+00 1.000000e+00 -1.224647e-16
    outer loop
      vertex -2.113486e+00 -4.008236e+00 5.990276e+00
      vertex 1.931828e+00 -4.008236e+00 2.847092e+00
      vertex -2.113486e+00 -4.008236e+00 2.847092e+00
    endloop
  endfacet
  facet normal -8.660254e-01 5.000000e-01 -6.123234e-17
    outer loop
      vertex 3.398100e+00 -1.468578e+00 2.847092e+00
      vertex 1.931828e+00 -4.008236e+00 5.990276e+00
      vertex 3.398100e+00 -1.468578e+00 5.990278e+00
    endloop
  endfacet
  facet normal -8.660251e-01 -5.000006e-01 6.123242e-17
    outer loop
      vertex 3.398100e+00 4.587975e-01 5.990280e+00
      vertex 1.931828e+00 2.998451e+00 2.847092e+00
      vertex 3.398100e+00 4.587975e-01 2.847092e+00
    endloop
  endfacet
  facet normal 0.000000e+00 -1.000000e+00 1.224647e-16
    outer loop
      vertex -6.000000e+00 -1.024749e+01 0.000000e+00
      vertex -3.398100e+00 -1.024749e+01 1.500000e+00
      vertex -6.000000e+00 -1.024749e+01 1.500000e+00
    endloop
  endfacet
  facet normal 0.000000e+00 -1.000000e+00 1.224647e-16
    outer loop
      vertex 6.000000e+00 -1.024749e+01 0.000000e+00
      vertex -3.398100e+00 -1.024749e+01 1.500000e+00
      vertex -6.000000e+00 -1.024749e+01 0.000000e+00
    endloop
  endfacet
  facet normal 0.000000e+00 -1.000000e+00 1.224647e-16
    outer loop
      vertex 3.398100e+00 -1.024749e+01 1.500000e+00
      vertex 6.000000e+00 -1.024749e+01 0.000000e+00
      vertex 6.000000e+00 -1.024749e+01 1.500000e+00
    endloop
  endfacet
  facet normal 0.000000e+00 -1.000000e+00 1.224647e-16
    outer loop
      vertex 3.398100e+00 -1.024749e+01 1.500000e+00
      vertex -3.398100e+00 -1.024749e+01 1.500000e+00
      vertex 6.000000e+00 -1.024749e+01 0.000000e+00
    endloop
  endfacet
  facet normal 0.000000e+00 -1.000000e+00 1.224647e-16
    outer loop
      vertex 3.398100e+00 -1.024749e+01 5.990273e+00
      vertex -3.398100e+00 -1.024749e+01 1.500000e+00
      vertex 3.398100e+00 -1.024749e+01 1.500000e+00
    endloop
  endfacet
  facet normal 0.000000e+00 1.000000e+00 -1.224647e-16
    outer loop
      vertex 6.000000e+00 1.024749e+01 1.335144e-05
      vertex 3.398100e+00 1.024749e+01 1.500013e+00
      vertex 6.000000e+00 1.024749e+01 1.500013e+00
    endloop
  endfacet
  facet normal 0.000000e+00 1.000000e+00 -1.224647e-16
    outer loop
      vertex -6.000000e+00 1.024749e+01 1.335144e-05
      vertex 3.398100e+00 1.024749e+01 1.500013e+00
      vertex 6.000000e+00 1.024749e+01 1.335144e-05
    endloop
  endfacet
  facet normal 0.000000e+00 1.000000e+00 -1.224647e-16
    outer loop
      vertex -3.398100e+00 1.024749e+01 1.500013e+00
      vertex -6.000000e+00 1.024749e+01 1.335144e-05
      vertex -6.000000e+00 1.024749e+01 1.500013e+00
    endloop
  endfacet
  facet normal -0.000000e+00 1.000000e+00 -1.224647e-16
    outer loop
      vertex -3.398100e+00 1.024749e+01 1.500013e+00
      vertex 3.398100e+00 1.024749e+01 1.500013e+00
      vertex -6.000000e+00 1.024749e+01 1.335144e-05
    endloop
  endfacet
  facet normal 0.000000e+00 1.000000e+00 -1.224647e-16
    outer loop
      vertex -3.398100e+00 1.024749e+01 5.990286e+00
      vertex 3.398100e+00 1.024749e+01 1.500013e+00
      vertex -3.398100e+00 1.024749e+01 1.500013e+00
    endloop
  endfacet
  facet normal 1.000000e+00 0.000000e+00 0.000000e+00
    outer loop
      vertex 6.000000e+00 1.024749e+01 1.335144e-05
      vertex 6.000000e+00 -1.024749e+01 1.500000e+00
      vertex 6.000000e+00 -1.024749e+01 0.000000e+00
    endloop
  endfacet
  facet normal -1.000000e+00 -0.000000e+00 0.000000e+00
    outer loop
      vertex -6.000000e+00 1.024749e+01 1.335144e-05
      vertex -6.000000e+00 -1.024749e+01 1.500000e+00
      vertex -6.000000e+00 1.024749e+01 1.500013e+00
    endloop
  endfacet
  facet normal 0.000000e+00 -6.514493e-07 1.000000e+00
    outer loop
      vertex 3.398100e+00 1.024749e+01 1.500013e+00
      vertex 6.000000e+00 -1.024749e+01 1.500000e+00
      vertex 6.000000e+00 1.024749e+01 1.500013e+00
    endloop
  endfacet
  facet normal 0.000000e+00 -6.514493e-07 1.000000e+00
    outer loop
      vertex -3.398100e+00 -1.024749e+01 1.500000e+00
      vertex -6.000000e+00 1.024749e+01 1.500013e+00
      vertex -6.000000e+00 -1.024749e+01 1.500000e+00
    endloop
  endfacet
  facet normal 0.000000e+00 7.225232e-07 -1.000000e+00
    outer loop
      vertex -1.326893e+00 -2.327957e+00 5.722046e-06
      vertex 6.000000e+00 -1.024749e+01 0.000000e+00
      vertex -6.000000e+00 -1.024749e+01 0.000000e+00
    endloop
  endfacet
  facet normal -9.545750e-06 -8.108893e-06 -1.000000e+00
    outer loop
      vertex -1.122540e+00 -2.450912e+00 4.768372e-06
      vertex 6.000000e+00 -1.024749e+01 0.000000e+00
      vertex -1.326893e+00 -2.327957e+00 5.722046e-06
    endloop
  endfacet
  facet normal 4.900909e-07 1.059319e-06 -1.000000e+00
    outer loop
      vertex -9.060905e-01 -2.551052e+00 4.768372e-06
      vertex 6.000000e+00 -1.024749e+01 0.000000e+00
      vertex -1.122540e+00 -2.450912e+00 4.768372e-06
    endloop
  endfacet
  facet normal 2.992301e-07 8.880578e-07 -1.000000e+00
    outer loop
      vertex -6.800835e-01 -2.627205e+00 4.768372e-06
      vertex 6.000000e+00 -1.024749e+01 0.000000e+00
      vertex -9.060905e-01 -2.551052e+00 4.768372e-06
    endloop
  endfacet
  facet normal 1.706573e-07 7.753484e-07 -1.000000e+00
    outer loop
      vertex -4.471676e-01 -2.678471e+00 4.768372e-06
      vertex 6.000000e+00 -1.024749e+01 0.000000e+00
      vertex -6.800835e-01 -2.627205e+00 4.768372e-06
    endloop
  endfacet
  facet normal 7.551616e-08 6.943088e-07 -1.000000e+00
    outer loop
      vertex -2.100742e-01 -2.704258e+00 4.768372e-06
      vertex 6.000000e+00 -1.024749e+01 0.000000e+00
      vertex -4.471676e-01 -2.678471e+00 4.768372e-06
    endloop
  endfacet
  facet normal 0.000000e+00 6.321391e-07 -1.000000e+00
    outer loop
      vertex 2.841735e-02 -2.704258e+00 4.768372e-06
      vertex 6.000000e+00 -1.024749e+01 0.000000e+00
      vertex -2.100742e-01 -2.704258e+00 4.768372e-06
    endloop
  endfacet
  facet normal -6.330365e-08 5.820249e-07 -1.000000e+00
    outer loop
      vertex 2.655108e-01 -2.678471e+00 4.768372e-06
      vertex 6.000000e+00 -1.024749e+01 0.000000e+00
      vertex 2.841735e-02 -2.704258e+00 4.768372e-06
    endloop
  endfacet
  facet normal -1.188444e-07 5.399458e-07 -1.000000e+00
    outer loop
      vertex 4.984264e-01 -2.627205e+00 4.768372e-06
      vertex 6.000000e+00 -1.024749e+01 0.000000e+00
      vertex 2.655108e-01 -2.678471e+00 4.768372e-06
    endloop
  endfacet
  facet normal -1.695894e-07 5.033096e-07 -1.000000e+00
    outer loop
      vertex 7.244337e-01 -2.551052e+00 4.768372e-06
      vertex 6.000000e+00 -1.024749e+01 0.000000e+00
      vertex 4.984264e-01 -2.627205e+00 4.768372e-06
    endloop
  endfacet
  facet normal -2.176223e-07 4.703852e-07 -1.000000e+00
    outer loop
      vertex 9.408829e-01 -2.450912e+00 4.768372e-06
      vertex 6.000000e+00 -1.024749e+01 0.000000e+00
      vertex 7.244337e-01 -2.551052e+00 4.768372e-06
    endloop
  endfacet
  facet normal 3.091722e-06 2.617784e-06 -1.000000e+00
    outer loop
      vertex 1.145236e+00 -2.327957e+00 5.722046e-06
      vertex 6.000000e+00 -1.024749e+01 0.000000e+00
      vertex 9.408829e-01 -2.450912e+00 4.768372e-06
    endloop
  endfacet
  facet normal -3.746578e-07 4.928537e-07 -1.000000e+00
    outer loop
      vertex 1.335098e+00 -2.183628e+00 5.722046e-06
      vertex 6.000000e+00 -1.024749e+01 0.000000e+00
      vertex 1.145236e+00 -2.327957e+00 5.722046e-06
    endloop
  endfacet
  facet normal 3.791681e-07 4.987862e-07 -1.000000e+00
    outer loop
      vertex -6.000000e+00 -1.024749e+01 0.000000e+00
      vertex -1.516754e+00 -2.183628e+00 5.722046e-06
      vertex -1.326893e+00 -2.327957e+00 5.722046e-06
    endloop
  endfacet
  facet normal -4.342153e-07 4.584000e-07 -1.000000e+00
    outer loop
      vertex 1.508242e+00 -2.019619e+00 5.722046e-06
      vertex 6.000000e+00 -1.024749e+01 0.000000e+00
      vertex 1.335098e+00 -2.183628e+00 5.722046e-06
    endloop
  endfacet
  facet normal 4.402842e-07 4.648062e-07 -1.000000e+00
    outer loop
      vertex -6.000000e+00 -1.024749e+01 0.000000e+00
      vertex -1.689898e+00 -2.019619e+00 5.722046e-06
      vertex -1.516754e+00 -2.183628e+00 5.722046e-06
    endloop
  endfacet
  facet normal -4.984129e-07 4.233532e-07 -1.000000e+00
    outer loop
      vertex 1.662638e+00 -1.837849e+00 5.722046e-06
      vertex 6.000000e+00 -1.024749e+01 0.000000e+00
      vertex 1.508242e+00 -2.019619e+00 5.722046e-06
    endloop
  endfacet
  facet normal 5.064265e-07 4.301596e-07 -1.000000e+00
    outer loop
      vertex -6.000000e+00 -1.024749e+01 0.000000e+00
      vertex -1.844294e+00 -1.837849e+00 5.722046e-06
      vertex -1.689898e+00 -2.019619e+00 5.722046e-06
    endloop
  endfacet
  facet normal -5.699654e-07 3.864492e-07 -1.000000e+00
    outer loop
      vertex 1.796476e+00 -1.640453e+00 5.722046e-06
      vertex 6.000000e+00 -1.024749e+01 0.000000e+00
      vertex 1.662638e+00 -1.837849e+00 5.722046e-06
    endloop
  endfacet
  facet normal 5.804675e-07 3.935706e-07 -1.000000e+00
    outer loop
      vertex -6.000000e+00 -1.024749e+01 0.000000e+00
      vertex -1.978133e+00 -1.640453e+00 5.722046e-06
      vertex -1.844294e+00 -1.837849e+00 5.722046e-06
    endloop
  endfacet
  facet normal -6.527069e-07 3.460397e-07 -1.000000e+00
    outer loop
      vertex 1.908188e+00 -1.429741e+00 5.722046e-06
      vertex 6.000000e+00 -1.024749e+01 0.000000e+00
      vertex 1.796476e+00 -1.640453e+00 5.722046e-06
    endloop
  endfacet
  facet normal 6.665176e-07 3.533616e-07 -1.000000e+00
    outer loop
      vertex -6.000000e+00 -1.024749e+01 0.000000e+00
      vertex -2.089844e+00 -1.429741e+00 5.722046e-06
      vertex -1.978133e+00 -1.640453e+00 5.722046e-06
    endloop
  endfacet
  facet normal -7.523940e-07 2.997807e-07 -1.000000e+00
    outer loop
      vertex 1.996463e+00 -1.208187e+00 5.722046e-06
      vertex 6.000000e+00 -1.024749e+01 0.000000e+00
      vertex 1.908188e+00 -1.429741e+00 5.722046e-06
    endloop
  endfacet
  facet normal 4.161362e-08 6.514493e-07 -1.000000e+00
    outer loop
      vertex 1.996463e+00 -1.208187e+00 5.722046e-06
      vertex 6.000000e+00 1.024749e+01 1.335144e-05
      vertex 6.000000e+00 -1.024749e+01 0.000000e+00
    endloop
  endfacet
  facet normal 9.271686e-06 -2.574282e-06 -1.000000e+00
    outer loop
      vertex 2.060266e+00 -9.783897e-01 5.722046e-06
      vertex 6.000000e+00 1.024749e+01 1.335144e-05
      vertex 1.996463e+00 -1.208187e+00 5.722046e-06
    endloop
  endfacet
  facet normal -1.803370e-05 7.008569e-06 -1.000000e+00
    outer loop
      vertex 2.098850e+00 -7.430382e-01 6.675720e-06
      vertex 6.000000e+00 1.024749e+01 1.335144e-05
      vertex 2.060266e+00 -9.783897e-01 5.722046e-06
    endloop
  endfacet
  facet normal 2.019731e-06 -1.095085e-07 -1.000000e+00
    outer loop
      vertex 2.111761e+00 -5.048981e-01 6.675720e-06
      vertex 6.000000e+00 1.024749e+01 1.335144e-05
      vertex 2.098850e+00 -7.430382e-01 6.675720e-06
    endloop
  endfacet
  facet normal 1.493039e-06 8.095199e-08 -1.000000e+00
    outer loop
      vertex 2.098849e+00 -2.667503e-01 6.675720e-06
      vertex 6.000000e+00 1.024749e+01 1.335144e-05
      vertex 2.111761e+00 -5.048981e-01 6.675720e-06
    endloop
  endfacet
  facet normal 1.186815e-06 1.945719e-07 -1.000000e+00
    outer loop
      vertex 2.060265e+00 -3.140259e-02 6.675720e-06
      vertex 6.000000e+00 1.024749e+01 1.335144e-05
      vertex 2.098849e+00 -2.667503e-01 6.675720e-06
    endloop
  endfacet
  facet normal 9.826424e-07 2.728280e-07 -1.000000e+00
    outer loop
      vertex 1.996461e+00 1.983986e-01 6.675720e-06
      vertex 6.000000e+00 1.024749e+01 1.335144e-05
      vertex 2.060265e+00 -3.140259e-02 6.675720e-06
    endloop
  endfacet
  facet normal -4.568339e-06 2.484328e-06 -1.000000e+00
    outer loop
      vertex 1.908186e+00 4.199486e-01 7.629395e-06
      vertex 6.000000e+00 1.024749e+01 1.335144e-05
      vertex 1.996461e+00 1.983986e-01 6.675720e-06
    endloop
  endfacet
  facet normal 6.151405e-07 3.261248e-07 -1.000000e+00
    outer loop
      vertex 1.796474e+00 6.306610e-01 7.629395e-06
      vertex 6.000000e+00 1.024749e+01 1.335144e-05
      vertex 1.908186e+00 4.199486e-01 7.629395e-06
    endloop
  endfacet
  facet normal 5.335758e-07 3.617769e-07 -1.000000e+00
    outer loop
      vertex 1.662635e+00 8.280563e-01 7.629395e-06
      vertex 6.000000e+00 1.024749e+01 1.335144e-05
      vertex 1.796474e+00 6.306610e-01 7.629395e-06
    endloop
  endfacet
  facet normal 4.637639e-07 3.939231e-07 -1.000000e+00
    outer loop
      vertex 1.508239e+00 1.009827e+00 7.629395e-06
      vertex 6.000000e+00 1.024749e+01 1.335144e-05
      vertex 1.662635e+00 8.280563e-01 7.629395e-06
    endloop
  endfacet
  facet normal 0.000000e+00 6.194257e-07 -1.000000e+00
    outer loop
      vertex 1.508239e+00 1.009827e+00 7.629395e-06
      vertex -6.000000e+00 1.024749e+01 1.335144e-05
      vertex 6.000000e+00 1.024749e+01 1.335144e-05
    endloop
  endfacet
  facet normal 2.550001e-06 2.692029e-06 -1.000000e+00
    outer loop
      vertex 1.335095e+00 1.173836e+00 7.629395e-06
      vertex -6.000000e+00 1.024749e+01 1.335144e-05
      vertex 1.508239e+00 1.009827e+00 7.629395e-06
    endloop
  endfacet
  facet normal 1.243544e-06 1.635897e-06 -1.000000e+00
    outer loop
      vertex 1.145233e+00 1.318161e+00 7.629395e-06
      vertex -6.000000e+00 1.024749e+01 1.335144e-05
      vertex 1.335095e+00 1.173836e+00 7.629395e-06
    endloop
  endfacet
  facet normal 7.435629e-07 1.235813e-06 -1.000000e+00
    outer loop
      vertex 9.408798e-01 1.441116e+00 7.629395e-06
      vertex -6.000000e+00 1.024749e+01 1.335144e-05
      vertex 1.145233e+00 1.318161e+00 7.629395e-06
    endloop
  endfacet
  facet normal 4.732044e-07 1.022725e-06 -1.000000e+00
    outer loop
      vertex 8.327105e-01 1.491165e+00 7.629395e-06
      vertex -6.000000e+00 1.024749e+01 1.335144e-05
      vertex 9.408798e-01 1.441116e+00 7.629395e-06
    endloop
  endfacet
  facet normal 4.731245e-07 1.022663e-06 -1.000000e+00
    outer loop
      vertex 7.244306e-01 1.541260e+00 7.629395e-06
      vertex -6.000000e+00 1.024749e+01 1.335144e-05
      vertex 8.327105e-01 1.491165e+00 7.629395e-06
    endloop
  endfacet
  facet normal 2.993434e-07 8.884397e-07 -1.000000e+00
    outer loop
      vertex 4.984233e-01 1.617409e+00 7.629395e-06
      vertex -6.000000e+00 1.024749e+01 1.335144e-05
      vertex 7.244306e-01 1.541260e+00 7.629395e-06
    endloop
  endfacet
  facet normal 1.749446e-07 7.947677e-07 -1.000000e+00
    outer loop
      vertex 2.655075e-01 1.668678e+00 7.629395e-06
      vertex -6.000000e+00 1.024749e+01 1.335144e-05
      vertex 4.984233e-01 1.617409e+00 7.629395e-06
    endloop
  endfacet
  facet normal 7.880564e-08 7.245529e-07 -1.000000e+00
    outer loop
      vertex 2.841401e-02 1.694466e+00 7.629395e-06
      vertex -6.000000e+00 1.024749e+01 1.335144e-05
      vertex 2.655075e-01 1.668678e+00 7.629395e-06
    endloop
  endfacet
  facet normal 0.000000e+00 6.690084e-07 -1.000000e+00
    outer loop
      vertex -2.100775e-01 1.694466e+00 7.629395e-06
      vertex -6.000000e+00 1.024749e+01 1.335144e-05
      vertex 2.841401e-02 1.694466e+00 7.629395e-06
    endloop
  endfacet
  facet normal -6.777432e-08 6.231290e-07 -1.000000e+00
    outer loop
      vertex -4.471710e-01 1.668678e+00 7.629395e-06
      vertex -6.000000e+00 1.024749e+01 1.335144e-05
      vertex -2.100775e-01 1.694466e+00 7.629395e-06
    endloop
  endfacet
  facet normal -1.285100e-07 5.838165e-07 -1.000000e+00
    outer loop
      vertex -6.800866e-01 1.617409e+00 7.629395e-06
      vertex -6.000000e+00 1.024749e+01 1.335144e-05
      vertex -4.471710e-01 1.668678e+00 7.629395e-06
    endloop
  endfacet
  facet normal -1.849796e-07 5.490065e-07 -1.000000e+00
    outer loop
      vertex -7.930324e-01 1.579353e+00 7.629395e-06
      vertex -6.000000e+00 1.024749e+01 1.335144e-05
      vertex -6.800866e-01 1.617409e+00 7.629395e-06
    endloop
  endfacet
  facet normal -1.850072e-07 5.489899e-07 -1.000000e+00
    outer loop
      vertex -9.060938e-01 1.541252e+00 7.629395e-06
      vertex -6.000000e+00 1.024749e+01 1.335144e-05
      vertex -7.930324e-01 1.579353e+00 7.629395e-06
    endloop
  endfacet
  facet normal -2.392829e-07 5.172340e-07 -1.000000e+00
    outer loop
      vertex -1.014263e+00 1.491211e+00 7.629395e-06
      vertex -6.000000e+00 1.024749e+01 1.335144e-05
      vertex -9.060938e-01 1.541252e+00 7.629395e-06
    endloop
  endfacet
  facet normal -2.392913e-07 5.172292e-07 -1.000000e+00
    outer loop
      vertex -1.122543e+00 1.441116e+00 7.629395e-06
      vertex -6.000000e+00 1.024749e+01 1.335144e-05
      vertex -1.014263e+00 1.491211e+00 7.629395e-06
    endloop
  endfacet
  facet normal -2.932318e-07 4.873539e-07 -1.000000e+00
    outer loop
      vertex -1.326895e+00 1.318161e+00 7.629395e-06
      vertex -6.000000e+00 1.024749e+01 1.335144e-05
      vertex -1.122543e+00 1.441116e+00 7.629395e-06
    endloop
  endfacet
  facet normal -3.484927e-07 4.584335e-07 -1.000000e+00
    outer loop
      vertex -1.516757e+00 1.173832e+00 7.629395e-06
      vertex -6.000000e+00 1.024749e+01 1.335144e-05
      vertex -1.326895e+00 1.318161e+00 7.629395e-06
    endloop
  endfacet
  facet normal -4.069133e-07 4.295682e-07 -1.000000e+00
    outer loop
      vertex -1.689901e+00 1.009819e+00 7.629395e-06
      vertex -6.000000e+00 1.024749e+01 1.335144e-05
      vertex -1.516757e+00 1.173832e+00 7.629395e-06
    endloop
  endfacet
  facet normal -4.706894e-07 3.998116e-07 -1.000000e+00
    outer loop
      vertex -1.844297e+00 8.280525e-01 7.629395e-06
      vertex -6.000000e+00 1.024749e+01 1.335144e-05
      vertex -1.689901e+00 1.009819e+00 7.629395e-06
    endloop
  endfacet
  facet normal -5.427776e-07 3.680075e-07 -1.000000e+00
    outer loop
      vertex -1.978135e+00 6.306534e-01 7.629395e-06
      vertex -6.000000e+00 1.024749e+01 1.335144e-05
      vertex -1.844297e+00 8.280525e-01 7.629395e-06
    endloop
  endfacet
  facet normal -6.273878e-07 3.326225e-07 -1.000000e+00
    outer loop
      vertex -2.089846e+00 4.199448e-01 7.629395e-06
      vertex -6.000000e+00 1.024749e+01 1.335144e-05
      vertex -1.978135e+00 6.306534e-01 7.629395e-06
    endloop
  endfacet
  facet normal 7.707999e-07 3.071195e-07 -1.000000e+00
    outer loop
      vertex -6.000000e+00 -1.024749e+01 0.000000e+00
      vertex -2.178119e+00 -1.208191e+00 5.722046e-06
      vertex -2.089844e+00 -1.429741e+00 5.722046e-06
    endloop
  endfacet
  facet normal -4.359089e-08 6.514493e-07 -1.000000e+00
    outer loop
      vertex -6.000000e+00 1.024749e+01 1.335144e-05
      vertex -2.178119e+00 -1.208191e+00 5.722046e-06
      vertex -6.000000e+00 -1.024749e+01 0.000000e+00
    endloop
  endfacet
  facet normal -1.189786e-05 -3.303408e-06 -1.000000e+00
    outer loop
      vertex -6.000000e+00 1.024749e+01 1.335144e-05
      vertex -2.241923e+00 -9.783897e-01 5.722046e-06
      vertex -2.178119e+00 -1.208191e+00 5.722046e-06
    endloop
  endfacet
  facet normal 1.974266e-05 7.288852e-06 -1.000000e+00
    outer loop
      vertex -6.000000e+00 1.024749e+01 1.335144e-05
      vertex -2.280507e+00 -7.430420e-01 6.675720e-06
      vertex -2.241923e+00 -9.783897e-01 5.722046e-06
    endloop
  endfacet
  facet normal -2.137189e-06 -1.158739e-07 -1.000000e+00
    outer loop
      vertex -6.000000e+00 1.024749e+01 1.335144e-05
      vertex -2.293419e+00 -5.048981e-01 6.675720e-06
      vertex -2.280507e+00 -7.430420e-01 6.675720e-06
    endloop
  endfacet
  facet normal -1.556271e-06 8.437890e-08 -1.000000e+00
    outer loop
      vertex -6.000000e+00 1.024749e+01 1.335144e-05
      vertex -2.280507e+00 -2.667580e-01 6.675720e-06
      vertex -2.293419e+00 -5.048981e-01 6.675720e-06
    endloop
  endfacet
  facet normal -1.226439e-06 2.010593e-07 -1.000000e+00
    outer loop
      vertex -6.000000e+00 1.024749e+01 1.335144e-05
      vertex -2.241924e+00 -3.140640e-02 6.675720e-06
      vertex -2.280507e+00 -2.667580e-01 6.675720e-06
    endloop
  endfacet
  facet normal -1.009632e-06 2.803255e-07 -1.000000e+00
    outer loop
      vertex -6.000000e+00 1.024749e+01 1.335144e-05
      vertex -2.178120e+00 1.983910e-01 6.675720e-06
      vertex -2.241924e+00 -3.140640e-02 6.675720e-06
    endloop
  endfacet
  facet normal 3.138565e-07 -6.760234e-07 1.000000e+00
    outer loop
      vertex -3.398100e+00 -1.024749e+01 5.990273e+00
      vertex -2.113486e+00 -4.008236e+00 5.990276e+00
      vertex -3.398100e+00 -1.783218e+00 5.990278e+00
    endloop
  endfacet
  facet normal -1.718739e-07 -6.517945e-07 1.000000e+00
    outer loop
      vertex 1.931828e+00 -4.008236e+00 5.990276e+00
      vertex 3.398100e+00 -1.024749e+01 5.990273e+00
      vertex 3.398100e+00 -1.468578e+00 5.990278e+00
    endloop
  endfacet
  facet normal 0.000000e+00 -6.114029e-07 1.000000e+00
    outer loop
      vertex -3.398100e+00 -1.024749e+01 5.990273e+00
      vertex 1.931828e+00 -4.008236e+00 5.990276e+00
      vertex -2.113486e+00 -4.008236e+00 5.990276e+00
    endloop
  endfacet
  facet normal 3.037249e-07 -6.039700e-07 1.000000e+00
    outer loop
      vertex -2.113485e+00 2.998451e+00 5.990281e+00
      vertex -3.398100e+00 1.024749e+01 5.990286e+00
      vertex -3.398100e+00 7.734337e-01 5.990280e+00
    endloop
  endfacet
  facet normal -3.620729e-07 -5.845567e-07 1.000000e+00
    outer loop
      vertex 3.398100e+00 1.024749e+01 5.990286e+00
      vertex 1.931828e+00 2.998451e+00 5.990281e+00
      vertex 3.398100e+00 4.587975e-01 5.990280e+00
    endloop
  endfacet
  facet normal 0.000000e+00 -6.577936e-07 1.000000e+00
    outer loop
      vertex -3.398100e+00 1.024749e+01 5.990286e+00
      vertex 1.931828e+00 2.998451e+00 5.990281e+00
      vertex 3.398100e+00 1.024749e+01 5.990286e+00
    endloop
  endfacet
  facet normal -9.985334e-01 5.413981e-02 -7.253981e-08
    outer loop
      vertex 2.111761e+00 -5.048981e-01 6.675720e-06
      vertex 2.098850e+00 -7.430344e-01 2.847092e+00
      vertex 2.111761e+00 -5.048943e-01 2.847092e+00
    endloop
  endfacet
  facet normal -9.868268e-01 1.617803e-01 -2.167631e-07
    outer loop
      vertex 2.098850e+00 -7.430382e-01 6.675720e-06
      vertex 2.060266e+00 -9.783859e-01 2.847092e+00
      vertex 2.098850e+00 -7.430344e-01 2.847092e+00
    endloop
  endfacet
  facet normal -9.635497e-01 2.675294e-01 -3.584520e-07
    outer loop
      vertex 2.060266e+00 -9.783897e-01 5.722046e-06
      vertex 1.996463e+00 -1.208183e+00 2.847092e+00
      vertex 2.060266e+00 -9.783859e-01 2.847092e+00
    endloop
  endfacet
  facet normal -9.289770e-01 3.701376e-01 -4.959327e-07
    outer loop
      vertex 1.996463e+00 -1.208187e+00 5.722046e-06
      vertex 1.908188e+00 -1.429737e+00 2.847092e+00
      vertex 1.996463e+00 -1.208183e+00 2.847092e+00
    endloop
  endfacet
  facet normal -8.835140e-01 4.684047e-01 -6.275968e-07
    outer loop
      vertex 1.908188e+00 -1.429741e+00 5.722046e-06
      vertex 1.796476e+00 -1.640450e+00 2.847092e+00
      vertex 1.908188e+00 -1.429737e+00 2.847092e+00
    endloop
  endfacet
  facet normal -8.276869e-01 5.611901e-01 -7.519163e-07
    outer loop
      vertex 1.796476e+00 -1.640453e+00 5.722046e-06
      vertex 1.662638e+00 -1.837845e+00 2.847092e+00
      vertex 1.796476e+00 -1.640450e+00 2.847092e+00
    endloop
  endfacet
  facet normal -7.621639e-01 6.473840e-01 -8.674041e-07
    outer loop
      vertex 1.662638e+00 -1.837849e+00 5.722046e-06
      vertex 1.508242e+00 -2.019615e+00 2.847092e+00
      vertex 1.662638e+00 -1.837845e+00 2.847092e+00
    endloop
  endfacet
  facet normal -6.876959e-01 7.259988e-01 -9.727369e-07
    outer loop
      vertex 1.508242e+00 -2.019619e+00 5.722046e-06
      vertex 1.335098e+00 -2.183624e+00 2.847092e+00
      vertex 1.508242e+00 -2.019615e+00 2.847092e+00
    endloop
  endfacet
  facet normal -6.051744e-01 7.960929e-01 -1.066653e-06
    outer loop
      vertex 1.335098e+00 -2.183628e+00 5.722046e-06
      vertex 1.145236e+00 -2.327953e+00 2.847092e+00
      vertex 1.335098e+00 -2.183624e+00 2.847092e+00
    endloop
  endfacet
  facet normal -3.193094e-01 9.476505e-01 -1.269719e-06
    outer loop
      vertex 7.244337e-01 -2.551052e+00 4.768372e-06
      vertex 4.984264e-01 -2.627201e+00 2.847092e+00
      vertex 7.244337e-01 -2.551048e+00 2.847092e+00
    endloop
  endfacet
  facet normal -5.155539e-01 8.568572e-01 -1.148069e-06
    outer loop
      vertex 1.145236e+00 -2.327957e+00 5.722046e-06
      vertex 9.408829e-01 -2.450909e+00 2.847092e+00
      vertex 1.145236e+00 -2.327953e+00 2.847092e+00
    endloop
  endfacet
  facet normal -4.198875e-01 9.075762e-01 -1.216025e-06
    outer loop
      vertex 9.408829e-01 -2.450912e+00 4.768372e-06
      vertex 7.244337e-01 -2.551048e+00 2.847092e+00
      vertex 9.408829e-01 -2.450909e+00 2.847092e+00
    endloop
  endfacet
  facet normal -2.149589e-01 9.766231e-01 -1.308538e-06
    outer loop
      vertex 4.984264e-01 -2.627205e+00 4.768372e-06
      vertex 2.655108e-01 -2.678467e+00 2.847092e+00
      vertex 4.984264e-01 -2.627201e+00 2.847092e+00
    endloop
  endfacet
  facet normal -1.081268e-01 9.941371e-01 -1.332004e-06
    outer loop
      vertex 2.655108e-01 -2.678471e+00 4.768372e-06
      vertex 2.841735e-02 -2.704254e+00 2.847092e+00
      vertex 2.655108e-01 -2.678467e+00 2.847092e+00
    endloop
  endfacet
  facet normal 0.000000e+00 1.000000e+00 -1.339860e-06
    outer loop
      vertex -2.100742e-01 -2.704258e+00 4.768372e-06
      vertex 2.841735e-02 -2.704254e+00 2.847092e+00
      vertex 2.841735e-02 -2.704258e+00 4.768372e-06
    endloop
  endfacet
  facet normal 1.081268e-01 9.941371e-01 -1.331819e-06
    outer loop
      vertex -4.471676e-01 -2.678471e+00 4.768372e-06
      vertex -2.100742e-01 -2.704254e+00 2.847092e+00
      vertex -2.100742e-01 -2.704258e+00 4.768372e-06
    endloop
  endfacet
  facet normal 2.149587e-01 9.766232e-01 -1.308506e-06
    outer loop
      vertex -6.800835e-01 -2.627205e+00 4.768372e-06
      vertex -4.471676e-01 -2.678467e+00 2.847092e+00
      vertex -4.471676e-01 -2.678471e+00 4.768372e-06
    endloop
  endfacet
  facet normal 3.193097e-01 9.476504e-01 -1.270096e-06
    outer loop
      vertex -9.060905e-01 -2.551052e+00 4.768372e-06
      vertex -6.800835e-01 -2.627201e+00 2.847092e+00
      vertex -6.800835e-01 -2.627205e+00 4.768372e-06
    endloop
  endfacet
  facet normal 4.198875e-01 9.075762e-01 -1.217978e-06
    outer loop
      vertex -1.122540e+00 -2.450912e+00 4.768372e-06
      vertex -9.060905e-01 -2.551048e+00 2.847092e+00
      vertex -9.060905e-01 -2.551052e+00 4.768372e-06
    endloop
  endfacet
  facet normal 8.276865e-01 5.611908e-01 -7.516387e-07
    outer loop
      vertex -1.978133e+00 -1.640453e+00 5.722046e-06
      vertex -1.844294e+00 -1.837845e+00 2.847092e+00
      vertex -1.844294e+00 -1.837849e+00 5.722046e-06
    endloop
  endfacet
  facet normal 7.621642e-01 6.473837e-01 -8.668466e-07
    outer loop
      vertex -1.844294e+00 -1.837849e+00 5.722046e-06
      vertex -1.689898e+00 -2.019615e+00 2.847092e+00
      vertex -1.689898e+00 -2.019619e+00 5.722046e-06
    endloop
  endfacet
  facet normal 8.835105e-01 4.684113e-01 -6.276056e-07
    outer loop
      vertex -1.978133e+00 -1.640453e+00 5.722046e-06
      vertex -2.089844e+00 -1.429741e+00 2.847092e+00
      vertex -1.978133e+00 -1.640450e+00 2.847092e+00
    endloop
  endfacet
  facet normal 9.289747e-01 3.701431e-01 -4.532946e-17
    outer loop
      vertex -2.178119e+00 -1.208191e+00 5.722046e-06
      vertex -2.089844e+00 -1.429741e+00 2.847092e+00
      vertex -2.089844e+00 -1.429741e+00 5.722046e-06
    endloop
  endfacet
  facet normal 9.635503e-01 2.675271e-01 -3.593544e-07
    outer loop
      vertex -2.241923e+00 -9.783897e-01 5.722046e-06
      vertex -2.178119e+00 -1.208187e+00 2.847092e+00
      vertex -2.178119e+00 -1.208191e+00 5.722046e-06
    endloop
  endfacet
  facet normal 9.868262e-01 1.617838e-01 -2.167141e-07
    outer loop
      vertex -2.280507e+00 -7.430420e-01 6.675720e-06
      vertex -2.241923e+00 -9.783859e-01 2.847092e+00
      vertex -2.241923e+00 -9.783897e-01 5.722046e-06
    endloop
  endfacet
  facet normal 9.985334e-01 5.413980e-02 -7.253980e-08
    outer loop
      vertex -2.280507e+00 -7.430420e-01 6.675720e-06
      vertex -2.293419e+00 -5.048981e-01 2.847092e+00
      vertex -2.280507e+00 -7.430382e-01 2.847092e+00
    endloop
  endfacet
  facet normal 5.155539e-01 8.568572e-01 -1.149397e-06
    outer loop
      vertex -1.326893e+00 -2.327957e+00 5.722046e-06
      vertex -1.122540e+00 -2.450909e+00 2.847092e+00
      vertex -1.122540e+00 -2.450912e+00 4.768372e-06
    endloop
  endfacet
  facet normal 6.051750e-01 7.960925e-01 -1.067103e-06
    outer loop
      vertex -1.516754e+00 -2.183628e+00 5.722046e-06
      vertex -1.326893e+00 -2.327953e+00 2.847092e+00
      vertex -1.326893e+00 -2.327957e+00 5.722046e-06
    endloop
  endfacet
  facet normal 6.876962e-01 7.259986e-01 -9.738377e-07
    outer loop
      vertex -1.689898e+00 -2.019619e+00 5.722046e-06
      vertex -1.516754e+00 -2.183624e+00 2.847092e+00
      vertex -1.516754e+00 -2.183628e+00 5.722046e-06
    endloop
  endfacet
  facet normal -1.000000e+00 -0.000000e+00 0.000000e+00
    outer loop
      vertex -3.398100e+00 -1.783218e+00 2.847092e+00
      vertex -3.398100e+00 -1.024749e+01 5.990273e+00
      vertex -3.398100e+00 -1.783218e+00 5.990278e+00
    endloop
  endfacet
  facet normal -1.000000e+00 0.000000e+00 -0.000000e+00
    outer loop
      vertex -3.398100e+00 -1.783218e+00 2.847092e+00
      vertex -3.398100e+00 -1.024749e+01 1.500000e+00
      vertex -3.398100e+00 -1.024749e+01 5.990273e+00
    endloop
  endfacet
  facet normal -1.000000e+00 0.000000e+00 0.000000e+00
    outer loop
      vertex -3.398100e+00 -1.783218e+00 2.847092e+00
      vertex -3.398100e+00 1.024749e+01 1.500013e+00
      vertex -3.398100e+00 -1.024749e+01 1.500000e+00
    endloop
  endfacet
  facet normal -1.000000e+00 0.000000e+00 0.000000e+00
    outer loop
      vertex -3.398100e+00 7.734337e-01 2.847092e+00
      vertex -3.398100e+00 1.024749e+01 1.500013e+00
      vertex -3.398100e+00 -1.783218e+00 2.847092e+00
    endloop
  endfacet
  facet normal -1.000000e+00 -0.000000e+00 0.000000e+00
    outer loop
      vertex -3.398100e+00 1.024749e+01 5.990286e+00
      vertex -3.398100e+00 7.734337e-01 2.847092e+00
      vertex -3.398100e+00 7.734337e-01 5.990280e+00
    endloop
  endfacet
  facet normal 7.621585e-01 -6.473905e-01 8.668588e-07
    outer loop
      vertex -1.689901e+00 1.009819e+00 7.629395e-06
      vertex -1.844297e+00 8.280563e-01 2.847092e+00
      vertex -1.844297e+00 8.280525e-01 7.629395e-06
    endloop
  endfacet
  facet normal 6.877036e-01 -7.259915e-01 9.710831e-07
    outer loop
      vertex -1.516757e+00 1.173832e+00 7.629395e-06
      vertex -1.689901e+00 1.009823e+00 2.847092e+00
      vertex -1.689901e+00 1.009819e+00 7.629395e-06
    endloop
  endfacet
  facet normal 6.051648e-01 -7.961003e-01 1.066664e-06
    outer loop
      vertex -1.516757e+00 1.173832e+00 7.629395e-06
      vertex -1.326895e+00 1.318161e+00 2.847092e+00
      vertex -1.516757e+00 1.173836e+00 2.847092e+00
    endloop
  endfacet
  facet normal 8.276924e-01 -5.611820e-01 7.516300e-07
    outer loop
      vertex -1.844297e+00 8.280525e-01 7.629395e-06
      vertex -1.978135e+00 6.306572e-01 2.847092e+00
      vertex -1.978135e+00 6.306534e-01 7.629395e-06
    endloop
  endfacet
  facet normal 8.835105e-01 -4.684113e-01 6.281954e-07
    outer loop
      vertex -1.978135e+00 6.306534e-01 7.629395e-06
      vertex -2.089846e+00 4.199486e-01 2.847092e+00
      vertex -2.089846e+00 4.199448e-01 7.629395e-06
    endloop
  endfacet
  facet normal 9.289783e-01 -3.701341e-01 4.965175e-07
    outer loop
      vertex -2.089846e+00 4.199448e-01 7.629395e-06
      vertex -2.178120e+00 1.983948e-01 2.847092e+00
      vertex -2.178120e+00 1.983910e-01 6.675720e-06
    endloop
  endfacet
  facet normal 9.985334e-01 -5.413981e-02 6.630215e-18
    outer loop
      vertex -2.280507e+00 -2.667580e-01 6.675720e-06
      vertex -2.293419e+00 -5.048981e-01 2.847092e+00
      vertex -2.293419e+00 -5.048981e-01 6.675720e-06
    endloop
  endfacet
  facet normal 9.868268e-01 -1.617799e-01 2.167626e-07
    outer loop
      vertex -2.280507e+00 -2.667580e-01 6.675720e-06
      vertex -2.241924e+00 -3.140640e-02 2.847092e+00
      vertex -2.280507e+00 -2.667542e-01 2.847092e+00
    endloop
  endfacet
  facet normal 9.635492e-01 -2.675312e-01 3.276313e-17
    outer loop
      vertex -2.178120e+00 1.983910e-01 6.675720e-06
      vertex -2.241924e+00 -3.140640e-02 2.847092e+00
      vertex -2.241924e+00 -3.140640e-02 6.675720e-06
    endloop
  endfacet
  facet normal -4.198538e-01 -9.075917e-01 -5.870044e-07
    outer loop
      vertex 8.327105e-01 1.491165e+00 7.629395e-06
      vertex 9.408798e-01 1.441124e+00 2.847092e+00
      vertex 8.047025e-01 1.504120e+00 2.847092e+00
    endloop
  endfacet
  facet normal -4.199089e-01 -9.075662e-01 1.111448e-16
    outer loop
      vertex 7.244306e-01 1.541260e+00 7.629395e-06
      vertex 8.047025e-01 1.504120e+00 2.847092e+00
      vertex 7.244306e-01 1.541260e+00 2.847092e+00
    endloop
  endfacet
  facet normal -3.192951e-01 -9.476553e-01 1.160543e-16
    outer loop
      vertex 4.984233e-01 1.617409e+00 7.629395e-06
      vertex 7.244306e-01 1.541260e+00 2.847092e+00
      vertex 4.984233e-01 1.617409e+00 2.847092e+00
    endloop
  endfacet
  facet normal -1.081268e-01 -9.941371e-01 1.217467e-16
    outer loop
      vertex 2.841401e-02 1.694466e+00 7.629395e-06
      vertex 2.655075e-01 1.668678e+00 2.847092e+00
      vertex 2.841401e-02 1.694466e+00 2.847092e+00
    endloop
  endfacet
  facet normal 1.081268e-01 -9.941371e-01 1.217467e-16
    outer loop
      vertex -2.100775e-01 1.694466e+00 7.629395e-06
      vertex -4.471710e-01 1.668678e+00 2.847092e+00
      vertex -4.471710e-01 1.668678e+00 7.629395e-06
    endloop
  endfacet
  facet normal 5.155547e-01 -8.568566e-01 1.049347e-16
    outer loop
      vertex -1.122543e+00 1.441116e+00 7.629395e-06
      vertex -1.326895e+00 1.318161e+00 2.847092e+00
      vertex -1.326895e+00 1.318161e+00 7.629395e-06
    endloop
  endfacet
  facet normal 4.199100e-01 -9.075658e-01 1.111448e-16
    outer loop
      vertex -1.122543e+00 1.441116e+00 7.629395e-06
      vertex -1.042271e+00 1.478256e+00 2.847092e+00
      vertex -1.122543e+00 1.441116e+00 2.847092e+00
    endloop
  endfacet
  facet normal 4.198963e-01 -9.075721e-01 1.094412e-06
    outer loop
      vertex -1.014263e+00 1.491211e+00 7.629395e-06
      vertex -9.060938e-01 1.541260e+00 2.847092e+00
      vertex -1.042271e+00 1.478256e+00 2.847092e+00
    endloop
  endfacet
  facet normal 3.193314e-01 -9.476431e-01 2.539420e-06
    outer loop
      vertex -9.060938e-01 1.541252e+00 7.629395e-06
      vertex -8.222773e-01 1.569504e+00 2.847092e+00
      vertex -9.060938e-01 1.541260e+00 2.847092e+00
    endloop
  endfacet
  facet normal 3.192737e-01 -9.476625e-01 1.081345e-06
    outer loop
      vertex -7.930324e-01 1.579353e+00 7.629395e-06
      vertex -6.800866e-01 1.617409e+00 2.847092e+00
      vertex -8.222773e-01 1.569504e+00 2.847092e+00
    endloop
  endfacet
  facet normal 2.149741e-01 -9.766197e-01 1.196014e-16
    outer loop
      vertex -4.471710e-01 1.668678e+00 7.629395e-06
      vertex -6.800866e-01 1.617409e+00 2.847092e+00
      vertex -6.800866e-01 1.617409e+00 7.629395e-06
    endloop
  endfacet
  facet normal 0.000000e+00 -1.000000e+00 1.224647e-16
    outer loop
      vertex -2.100775e-01 1.694466e+00 7.629395e-06
      vertex 2.841401e-02 1.694466e+00 2.847092e+00
      vertex -2.100775e-01 1.694466e+00 2.847092e+00
    endloop
  endfacet
  facet normal -2.149739e-01 -9.766198e-01 1.196014e-16
    outer loop
      vertex 2.655075e-01 1.668678e+00 7.629395e-06
      vertex 4.984233e-01 1.617409e+00 2.847092e+00
      vertex 2.655075e-01 1.668678e+00 2.847092e+00
    endloop
  endfacet
  facet normal 1.000000e+00 0.000000e+00 0.000000e+00
    outer loop
      vertex 3.398100e+00 -1.024749e+01 5.990273e+00
      vertex 3.398100e+00 -1.468578e+00 2.847092e+00
      vertex 3.398100e+00 -1.468578e+00 5.990278e+00
    endloop
  endfacet
  facet normal 1.000000e+00 0.000000e+00 0.000000e+00
    outer loop
      vertex 3.398100e+00 -1.024749e+01 1.500000e+00
      vertex 3.398100e+00 -1.468578e+00 2.847092e+00
      vertex 3.398100e+00 -1.024749e+01 5.990273e+00
    endloop
  endfacet
  facet normal 1.000000e+00 0.000000e+00 0.000000e+00
    outer loop
      vertex 3.398100e+00 1.024749e+01 1.500013e+00
      vertex 3.398100e+00 -1.468578e+00 2.847092e+00
      vertex 3.398100e+00 -1.024749e+01 1.500000e+00
    endloop
  endfacet
  facet normal 1.000000e+00 0.000000e+00 0.000000e+00
    outer loop
      vertex 3.398100e+00 1.024749e+01 1.500013e+00
      vertex 3.398100e+00 4.587975e-01 2.847092e+00
      vertex 3.398100e+00 -1.468578e+00 2.847092e+00
    endloop
  endfacet
  facet normal 1.000000e+00 0.000000e+00 0.000000e+00
    outer loop
      vertex 3.398100e+00 1.024749e+01 5.990286e+00
      vertex 3.398100e+00 4.587975e-01 2.847092e+00
      vertex 3.398100e+00 1.024749e+01 1.500013e+00
    endloop
  endfacet
  facet normal -7.621632e-01 -6.473849e-01 8.674059e-07
    outer loop
      vertex 1.508239e+00 1.009827e+00 7.629395e-06
      vertex 1.662635e+00 8.280602e-01 2.847092e+00
      vertex 1.508239e+00 1.009830e+00 2.847092e+00
    endloop
  endfacet
  facet normal -6.876959e-01 -7.259988e-01 9.727377e-07
    outer loop
      vertex 1.335095e+00 1.173836e+00 7.629395e-06
      vertex 1.508239e+00 1.009830e+00 2.847092e+00
      vertex 1.335095e+00 1.173840e+00 2.847092e+00
    endloop
  endfacet
  facet normal -6.051745e-01 -7.960929e-01 2.133308e-06
    outer loop
      vertex 1.145233e+00 1.318161e+00 7.629395e-06
      vertex 1.335095e+00 1.173840e+00 2.847092e+00
      vertex 1.145233e+00 1.318169e+00 2.847092e+00
    endloop
  endfacet
  facet normal -5.155534e-01 -8.568574e-01 2.296140e-06
    outer loop
      vertex 9.408798e-01 1.441116e+00 7.629395e-06
      vertex 1.145233e+00 1.318169e+00 2.847092e+00
      vertex 9.408798e-01 1.441124e+00 2.847092e+00
    endloop
  endfacet
  facet normal -9.868261e-01 -1.617848e-01 2.167691e-07
    outer loop
      vertex 2.060265e+00 -3.140259e-02 6.675720e-06
      vertex 2.098849e+00 -2.667465e-01 2.847092e+00
      vertex 2.060265e+00 -3.139877e-02 2.847092e+00
    endloop
  endfacet
  facet normal -9.635503e-01 -2.675271e-01 3.276263e-17
    outer loop
      vertex 2.060265e+00 -3.140259e-02 6.675720e-06
      vertex 1.996461e+00 1.983986e-01 2.847092e+00
      vertex 1.996461e+00 1.983986e-01 6.675720e-06
    endloop
  endfacet
  facet normal -9.289764e-01 -3.701389e-01 4.959347e-07
    outer loop
      vertex 1.908186e+00 4.199486e-01 7.629395e-06
      vertex 1.996461e+00 1.983986e-01 2.847092e+00
      vertex 1.908186e+00 4.199524e-01 2.847092e+00
    endloop
  endfacet
  facet normal -9.985334e-01 -5.414007e-02 7.254015e-08
    outer loop
      vertex 2.098849e+00 -2.667503e-01 6.675720e-06
      vertex 2.111761e+00 -5.048943e-01 2.847092e+00
      vertex 2.098849e+00 -2.667465e-01 2.847092e+00
    endloop
  endfacet
  facet normal -8.276864e-01 -5.611908e-01 7.519178e-07
    outer loop
      vertex 1.662635e+00 8.280563e-01 7.629395e-06
      vertex 1.796474e+00 6.306648e-01 2.847092e+00
      vertex 1.662635e+00 8.280602e-01 2.847092e+00
    endloop
  endfacet
  facet normal -8.835132e-01 -4.684062e-01 6.275993e-07
    outer loop
      vertex 1.796474e+00 6.306610e-01 7.629395e-06
      vertex 1.908186e+00 4.199524e-01 2.847092e+00
      vertex 1.796474e+00 6.306648e-01 2.847092e+00
    endloop
  endfacet
  facet normal 0.000000e+00 1.224647e-16 1.000000e+00
    outer loop
      vertex -2.178119e+00 -1.208187e+00 2.847092e+00
      vertex -3.398100e+00 7.734337e-01 2.847092e+00
      vertex -3.398100e+00 -1.783218e+00 2.847092e+00
    endloop
  endfacet
  facet normal 0.000000e+00 1.224647e-16 1.000000e+00
    outer loop
      vertex -2.241923e+00 -9.783859e-01 2.847092e+00
      vertex -3.398100e+00 7.734337e-01 2.847092e+00
      vertex -2.178119e+00 -1.208187e+00 2.847092e+00
    endloop
  endfacet
  facet normal 0.000000e+00 1.224647e-16 1.000000e+00
    outer loop
      vertex -2.280507e+00 -7.430382e-01 2.847092e+00
      vertex -3.398100e+00 7.734337e-01 2.847092e+00
      vertex -2.241923e+00 -9.783859e-01 2.847092e+00
    endloop
  endfacet
  facet normal 0.000000e+00 1.224647e-16 1.000000e+00
    outer loop
      vertex -2.293419e+00 -5.048981e-01 2.847092e+00
      vertex -3.398100e+00 7.734337e-01 2.847092e+00
      vertex -2.280507e+00 -7.430382e-01 2.847092e+00
    endloop
  endfacet
  facet normal 0.000000e+00 1.224647e-16 1.000000e+00
    outer loop
      vertex -2.280507e+00 -2.667542e-01 2.847092e+00
      vertex -3.398100e+00 7.734337e-01 2.847092e+00
      vertex -2.293419e+00 -5.048981e-01 2.847092e+00
    endloop
  endfacet
  facet normal 0.000000e+00 1.224647e-16 1.000000e+00
    outer loop
      vertex -2.241924e+00 -3.140640e-02 2.847092e+00
      vertex -3.398100e+00 7.734337e-01 2.847092e+00
      vertex -2.280507e+00 -2.667542e-01 2.847092e+00
    endloop
  endfacet
  facet normal 0.000000e+00 1.224647e-16 1.000000e+00
    outer loop
      vertex -2.178120e+00 1.983948e-01 2.847092e+00
      vertex -3.398100e+00 7.734337e-01 2.847092e+00
      vertex -2.241924e+00 -3.140640e-02 2.847092e+00
    endloop
  endfacet
  facet normal 0.000000e+00 1.224647e-16 1.000000e+00
    outer loop
      vertex -2.113486e+00 -4.008236e+00 2.847092e+00
      vertex -2.178119e+00 -1.208187e+00 2.847092e+00
      vertex -3.398100e+00 -1.783218e+00 2.847092e+00
    endloop
  endfacet
  facet normal 0.000000e+00 1.224647e-16 1.000000e+00
    outer loop
      vertex -2.113486e+00 -4.008236e+00 2.847092e+00
      vertex -2.089844e+00 -1.429741e+00 2.847092e+00
      vertex -2.178119e+00 -1.208187e+00 2.847092e+00
    endloop
  endfacet
  facet normal 0.000000e+00 1.224647e-16 1.000000e+00
    outer loop
      vertex -2.113486e+00 -4.008236e+00 2.847092e+00
      vertex -1.978133e+00 -1.640450e+00 2.847092e+00
      vertex -2.089844e+00 -1.429741e+00 2.847092e+00
    endloop
  endfacet
  facet normal 0.000000e+00 1.224647e-16 1.000000e+00
    outer loop
      vertex -2.113486e+00 -4.008236e+00 2.847092e+00
      vertex -1.844294e+00 -1.837845e+00 2.847092e+00
      vertex -1.978133e+00 -1.640450e+00 2.847092e+00
    endloop
  endfacet
  facet normal 0.000000e+00 1.224647e-16 1.000000e+00
    outer loop
      vertex -2.113486e+00 -4.008236e+00 2.847092e+00
      vertex -1.689898e+00 -2.019615e+00 2.847092e+00
      vertex -1.844294e+00 -1.837845e+00 2.847092e+00
    endloop
  endfacet
  facet normal 0.000000e+00 1.224647e-16 1.000000e+00
    outer loop
      vertex -2.113486e+00 -4.008236e+00 2.847092e+00
      vertex -1.516754e+00 -2.183624e+00 2.847092e+00
      vertex -1.689898e+00 -2.019615e+00 2.847092e+00
    endloop
  endfacet
  facet normal 0.000000e+00 1.224647e-16 1.000000e+00
    outer loop
      vertex -2.113486e+00 -4.008236e+00 2.847092e+00
      vertex -1.326893e+00 -2.327953e+00 2.847092e+00
      vertex -1.516754e+00 -2.183624e+00 2.847092e+00
    endloop
  endfacet
  facet normal 0.000000e+00 1.224647e-16 1.000000e+00
    outer loop
      vertex -2.113486e+00 -4.008236e+00 2.847092e+00
      vertex -1.122540e+00 -2.450909e+00 2.847092e+00
      vertex -1.326893e+00 -2.327953e+00 2.847092e+00
    endloop
  endfacet
  facet normal 0.000000e+00 1.224647e-16 1.000000e+00
    outer loop
      vertex 1.931828e+00 -4.008236e+00 2.847092e+00
      vertex -1.122540e+00 -2.450909e+00 2.847092e+00
      vertex -2.113486e+00 -4.008236e+00 2.847092e+00
    endloop
  endfacet
  facet normal 0.000000e+00 1.224647e-16 1.000000e+00
    outer loop
      vertex 1.931828e+00 -4.008236e+00 2.847092e+00
      vertex -9.060905e-01 -2.551048e+00 2.847092e+00
      vertex -1.122540e+00 -2.450909e+00 2.847092e+00
    endloop
  endfacet
  facet normal 0.000000e+00 1.224647e-16 1.000000e+00
    outer loop
      vertex 1.931828e+00 -4.008236e+00 2.847092e+00
      vertex -6.800835e-01 -2.627201e+00 2.847092e+00
      vertex -9.060905e-01 -2.551048e+00 2.847092e+00
    endloop
  endfacet
  facet normal 0.000000e+00 1.224647e-16 1.000000e+00
    outer loop
      vertex 1.931828e+00 -4.008236e+00 2.847092e+00
      vertex -4.471676e-01 -2.678467e+00 2.847092e+00
      vertex -6.800835e-01 -2.627201e+00 2.847092e+00
    endloop
  endfacet
  facet normal 0.000000e+00 1.224647e-16 1.000000e+00
    outer loop
      vertex 1.931828e+00 -4.008236e+00 2.847092e+00
      vertex -2.100742e-01 -2.704254e+00 2.847092e+00
      vertex -4.471676e-01 -2.678467e+00 2.847092e+00
    endloop
  endfacet
  facet normal 0.000000e+00 1.224647e-16 1.000000e+00
    outer loop
      vertex 1.931828e+00 -4.008236e+00 2.847092e+00
      vertex 2.841735e-02 -2.704254e+00 2.847092e+00
      vertex -2.100742e-01 -2.704254e+00 2.847092e+00
    endloop
  endfacet
  facet normal 0.000000e+00 1.224647e-16 1.000000e+00
    outer loop
      vertex 1.931828e+00 -4.008236e+00 2.847092e+00
      vertex 2.655108e-01 -2.678467e+00 2.847092e+00
      vertex 2.841735e-02 -2.704254e+00 2.847092e+00
    endloop
  endfacet
  facet normal 0.000000e+00 1.224647e-16 1.000000e+00
    outer loop
      vertex 1.931828e+00 -4.008236e+00 2.847092e+00
      vertex 4.984264e-01 -2.627201e+00 2.847092e+00
      vertex 2.655108e-01 -2.678467e+00 2.847092e+00
    endloop
  endfacet
  facet normal 0.000000e+00 1.224647e-16 1.000000e+00
    outer loop
      vertex 1.931828e+00 -4.008236e+00 2.847092e+00
      vertex 7.244337e-01 -2.551048e+00 2.847092e+00
      vertex 4.984264e-01 -2.627201e+00 2.847092e+00
    endloop
  endfacet
  facet normal 0.000000e+00 1.224647e-16 1.000000e+00
    outer loop
      vertex 3.398100e+00 -1.468578e+00 2.847092e+00
      vertex 7.244337e-01 -2.551048e+00 2.847092e+00
      vertex 1.931828e+00 -4.008236e+00 2.847092e+00
    endloop
  endfacet
  facet normal 0.000000e+00 1.224647e-16 1.000000e+00
    outer loop
      vertex 3.398100e+00 -1.468578e+00 2.847092e+00
      vertex 9.408829e-01 -2.450909e+00 2.847092e+00
      vertex 7.244337e-01 -2.551048e+00 2.847092e+00
    endloop
  endfacet
  facet normal 0.000000e+00 1.224647e-16 1.000000e+00
    outer loop
      vertex 3.398100e+00 -1.468578e+00 2.847092e+00
      vertex 1.145236e+00 -2.327953e+00 2.847092e+00
      vertex 9.408829e-01 -2.450909e+00 2.847092e+00
    endloop
  endfacet
  facet normal 0.000000e+00 1.224647e-16 1.000000e+00
    outer loop
      vertex 3.398100e+00 -1.468578e+00 2.847092e+00
      vertex 1.335098e+00 -2.183624e+00 2.847092e+00
      vertex 1.145236e+00 -2.327953e+00 2.847092e+00
    endloop
  endfacet
  facet normal 0.000000e+00 1.224647e-16 1.000000e+00
    outer loop
      vertex 3.398100e+00 -1.468578e+00 2.847092e+00
      vertex 1.508242e+00 -2.019615e+00 2.847092e+00
      vertex 1.335098e+00 -2.183624e+00 2.847092e+00
    endloop
  endfacet
  facet normal 0.000000e+00 1.224647e-16 1.000000e+00
    outer loop
      vertex 3.398100e+00 -1.468578e+00 2.847092e+00
      vertex 1.662638e+00 -1.837845e+00 2.847092e+00
      vertex 1.508242e+00 -2.019615e+00 2.847092e+00
    endloop
  endfacet
  facet normal 0.000000e+00 1.224647e-16 1.000000e+00
    outer loop
      vertex 3.398100e+00 -1.468578e+00 2.847092e+00
      vertex 1.796476e+00 -1.640450e+00 2.847092e+00
      vertex 1.662638e+00 -1.837845e+00 2.847092e+00
    endloop
  endfacet
  facet normal 0.000000e+00 1.224647e-16 1.000000e+00
    outer loop
      vertex 3.398100e+00 -1.468578e+00 2.847092e+00
      vertex 1.908188e+00 -1.429737e+00 2.847092e+00
      vertex 1.796476e+00 -1.640450e+00 2.847092e+00
    endloop
  endfacet
  facet normal 0.000000e+00 1.224647e-16 1.000000e+00
    outer loop
      vertex 3.398100e+00 -1.468578e+00 2.847092e+00
      vertex 1.996463e+00 -1.208183e+00 2.847092e+00
      vertex 1.908188e+00 -1.429737e+00 2.847092e+00
    endloop
  endfacet
  facet normal 0.000000e+00 1.224647e-16 1.000000e+00
    outer loop
      vertex 3.398100e+00 4.587975e-01 2.847092e+00
      vertex 1.996463e+00 -1.208183e+00 2.847092e+00
      vertex 3.398100e+00 -1.468578e+00 2.847092e+00
    endloop
  endfacet
  facet normal 0.000000e+00 1.224647e-16 1.000000e+00
    outer loop
      vertex 3.398100e+00 4.587975e-01 2.847092e+00
      vertex 2.060266e+00 -9.783859e-01 2.847092e+00
      vertex 1.996463e+00 -1.208183e+00 2.847092e+00
    endloop
  endfacet
  facet normal 0.000000e+00 1.224647e-16 1.000000e+00
    outer loop
      vertex 3.398100e+00 4.587975e-01 2.847092e+00
      vertex 2.098850e+00 -7.430344e-01 2.847092e+00
      vertex 2.060266e+00 -9.783859e-01 2.847092e+00
    endloop
  endfacet
  facet normal 0.000000e+00 1.224647e-16 1.000000e+00
    outer loop
      vertex 3.398100e+00 4.587975e-01 2.847092e+00
      vertex 2.111761e+00 -5.048943e-01 2.847092e+00
      vertex 2.098850e+00 -7.430344e-01 2.847092e+00
    endloop
  endfacet
  facet normal 0.000000e+00 1.224647e-16 1.000000e+00
    outer loop
      vertex 3.398100e+00 4.587975e-01 2.847092e+00
      vertex 2.098849e+00 -2.667465e-01 2.847092e+00
      vertex 2.111761e+00 -5.048943e-01 2.847092e+00
    endloop
  endfacet
  facet normal 0.000000e+00 1.224647e-16 1.000000e+00
    outer loop
      vertex 3.398100e+00 4.587975e-01 2.847092e+00
      vertex 2.060265e+00 -3.139877e-02 2.847092e+00
      vertex 2.098849e+00 -2.667465e-01 2.847092e+00
    endloop
  endfacet
  facet normal 0.000000e+00 1.224647e-16 1.000000e+00
    outer loop
      vertex 1.931828e+00 2.998451e+00 2.847092e+00
      vertex 2.060265e+00 -3.139877e-02 2.847092e+00
      vertex 3.398100e+00 4.587975e-01 2.847092e+00
    endloop
  endfacet
  facet normal 0.000000e+00 1.224647e-16 1.000000e+00
    outer loop
      vertex 1.931828e+00 2.998451e+00 2.847092e+00
      vertex 1.996461e+00 1.983986e-01 2.847092e+00
      vertex 2.060265e+00 -3.139877e-02 2.847092e+00
    endloop
  endfacet
  facet normal 0.000000e+00 1.224647e-16 1.000000e+00
    outer loop
      vertex 1.931828e+00 2.998451e+00 2.847092e+00
      vertex 1.908186e+00 4.199524e-01 2.847092e+00
      vertex 1.996461e+00 1.983986e-01 2.847092e+00
    endloop
  endfacet
  facet normal 0.000000e+00 1.224647e-16 1.000000e+00
    outer loop
      vertex 1.931828e+00 2.998451e+00 2.847092e+00
      vertex 1.796474e+00 6.306648e-01 2.847092e+00
      vertex 1.908186e+00 4.199524e-01 2.847092e+00
    endloop
  endfacet
  facet normal 0.000000e+00 1.224647e-16 1.000000e+00
    outer loop
      vertex 1.931828e+00 2.998451e+00 2.847092e+00
      vertex 1.662635e+00 8.280602e-01 2.847092e+00
      vertex 1.796474e+00 6.306648e-01 2.847092e+00
    endloop
  endfacet
  facet normal 0.000000e+00 1.224647e-16 1.000000e+00
    outer loop
      vertex 1.931828e+00 2.998451e+00 2.847092e+00
      vertex 1.508239e+00 1.009830e+00 2.847092e+00
      vertex 1.662635e+00 8.280602e-01 2.847092e+00
    endloop
  endfacet
  facet normal 0.000000e+00 1.224647e-16 1.000000e+00
    outer loop
      vertex 1.931828e+00 2.998451e+00 2.847092e+00
      vertex 1.335095e+00 1.173840e+00 2.847092e+00
      vertex 1.508239e+00 1.009830e+00 2.847092e+00
    endloop
  endfacet
  facet normal 0.000000e+00 1.224647e-16 1.000000e+00
    outer loop
      vertex 1.931828e+00 2.998451e+00 2.847092e+00
      vertex 1.145233e+00 1.318169e+00 2.847092e+00
      vertex 1.335095e+00 1.173840e+00 2.847092e+00
    endloop
  endfacet
  facet normal 0.000000e+00 1.224647e-16 1.000000e+00
    outer loop
      vertex 1.931828e+00 2.998451e+00 2.847092e+00
      vertex 9.408798e-01 1.441124e+00 2.847092e+00
      vertex 1.145233e+00 1.318169e+00 2.847092e+00
    endloop
  endfacet
  facet normal 0.000000e+00 1.224647e-16 1.000000e+00
    outer loop
      vertex -2.113485e+00 2.998451e+00 2.847092e+00
      vertex 9.408798e-01 1.441124e+00 2.847092e+00
      vertex 1.931828e+00 2.998451e+00 2.847092e+00
    endloop
  endfacet
  facet normal 0.000000e+00 1.224647e-16 1.000000e+00
    outer loop
      vertex -2.113485e+00 2.998451e+00 2.847092e+00
      vertex 8.047025e-01 1.504120e+00 2.847092e+00
      vertex 9.408798e-01 1.441124e+00 2.847092e+00
    endloop
  endfacet
  facet normal 0.000000e+00 1.224647e-16 1.000000e+00
    outer loop
      vertex -2.113485e+00 2.998451e+00 2.847092e+00
      vertex 7.244306e-01 1.541260e+00 2.847092e+00
      vertex 8.047025e-01 1.504120e+00 2.847092e+00
    endloop
  endfacet
  facet normal 0.000000e+00 1.224647e-16 1.000000e+00
    outer loop
      vertex -2.113485e+00 2.998451e+00 2.847092e+00
      vertex 4.984233e-01 1.617409e+00 2.847092e+00
      vertex 7.244306e-01 1.541260e+00 2.847092e+00
    endloop
  endfacet
  facet normal 0.000000e+00 1.224647e-16 1.000000e+00
    outer loop
      vertex -2.113485e+00 2.998451e+00 2.847092e+00
      vertex 2.655075e-01 1.668678e+00 2.847092e+00
      vertex 4.984233e-01 1.617409e+00 2.847092e+00
    endloop
  endfacet
  facet normal 0.000000e+00 1.224647e-16 1.000000e+00
    outer loop
      vertex -2.113485e+00 2.998451e+00 2.847092e+00
      vertex 2.841401e-02 1.694466e+00 2.847092e+00
      vertex 2.655075e-01 1.668678e+00 2.847092e+00
    endloop
  endfacet
  facet normal 0.000000e+00 1.224647e-16 1.000000e+00
    outer loop
      vertex -2.113485e+00 2.998451e+00 2.847092e+00
      vertex -2.100775e-01 1.694466e+00 2.847092e+00
      vertex 2.841401e-02 1.694466e+00 2.847092e+00
    endloop
  endfacet
  facet normal 0.000000e+00 1.224647e-16 1.000000e+00
    outer loop
      vertex -2.113485e+00 2.998451e+00 2.847092e+00
      vertex -4.471710e-01 1.668678e+00 2.847092e+00
      vertex -2.100775e-01 1.694466e+00 2.847092e+00
    endloop
  endfacet
  facet normal 0.000000e+00 1.224647e-16 1.000000e+00
    outer loop
      vertex -2.113485e+00 2.998451e+00 2.847092e+00
      vertex -6.800866e-01 1.617409e+00 2.847092e+00
      vertex -4.471710e-01 1.668678e+00 2.847092e+00
    endloop
  endfacet
  facet normal 0.000000e+00 1.224647e-16 1.000000e+00
    outer loop
      vertex -2.113485e+00 2.998451e+00 2.847092e+00
      vertex -8.222773e-01 1.569504e+00 2.847092e+00
      vertex -6.800866e-01 1.617409e+00 2.847092e+00
    endloop
  endfacet
  facet normal 0.000000e+00 1.224647e-16 1.000000e+00
    outer loop
      vertex -2.113485e+00 2.998451e+00 2.847092e+00
      vertex -9.060938e-01 1.541260e+00 2.847092e+00
      vertex -8.222773e-01 1.569504e+00 2.847092e+00
    endloop
  endfacet
  facet normal 0.000000e+00 1.224647e-16 1.000000e+00
    outer loop
      vertex -3.398100e+00 7.734337e-01 2.847092e+00
      vertex -9.060938e-01 1.541260e+00 2.847092e+00
      vertex -2.113485e+00 2.998451e+00 2.847092e+00
    endloop
  endfacet
  facet normal 0.000000e+00 1.224647e-16 1.000000e+00
    outer loop
      vertex -3.398100e+00 7.734337e-01 2.847092e+00
      vertex -1.042271e+00 1.478256e+00 2.847092e+00
      vertex -9.060938e-01 1.541260e+00 2.847092e+00
    endloop
  endfacet
  facet normal 0.000000e+00 1.224647e-16 1.000000e+00
    outer loop
      vertex -3.398100e+00 7.734337e-01 2.847092e+00
      vertex -1.122543e+00 1.441116e+00 2.847092e+00
      vertex -1.042271e+00 1.478256e+00 2.847092e+00
    endloop
  endfacet
  facet normal 0.000000e+00 1.224647e-16 1.000000e+00
    outer loop
      vertex -3.398100e+00 7.734337e-01 2.847092e+00
      vertex -1.326895e+00 1.318161e+00 2.847092e+00
      vertex -1.122543e+00 1.441116e+00 2.847092e+00
    endloop
  endfacet
  facet normal 0.000000e+00 1.224647e-16 1.000000e+00
    outer loop
      vertex -3.398100e+00 7.734337e-01 2.847092e+00
      vertex -1.516757e+00 1.173836e+00 2.847092e+00
      vertex -1.326895e+00 1.318161e+00 2.847092e+00
    endloop
  endfacet
  facet normal 0.000000e+00 1.224647e-16 1.000000e+00
    outer loop
      vertex -3.398100e+00 7.734337e-01 2.847092e+00
      vertex -1.689901e+00 1.009823e+00 2.847092e+00
      vertex -1.516757e+00 1.173836e+00 2.847092e+00
    endloop
  endfacet
  facet normal 0.000000e+00 1.224647e-16 1.000000e+00
    outer loop
      vertex -3.398100e+00 7.734337e-01 2.847092e+00
      vertex -1.844297e+00 8.280563e-01 2.847092e+00
      vertex -1.689901e+00 1.009823e+00 2.847092e+00
    endloop
  endfacet
  facet normal 0.000000e+00 1.224647e-16 1.000000e+00
    outer loop
      vertex -3.398100e+00 7.734337e-01 2.847092e+00
      vertex -1.978135e+00 6.306572e-01 2.847092e+00
      vertex -1.844297e+00 8.280563e-01 2.847092e+00
    endloop
  endfacet
  facet normal 0.000000e+00 1.224647e-16 1.000000e+00
    outer loop
      vertex -3.398100e+00 7.734337e-01 2.847092e+00
      vertex -2.089846e+00 4.199486e-01 2.847092e+00
      vertex -1.978135e+00 6.306572e-01 2.847092e+00
    endloop
  endfacet
  facet normal 8.660253e-01 -5.000002e-01 6.123236e-17
    outer loop
      vertex -3.398100e+00 7.734337e-01 5.990280e+00
      vertex -2.113485e+00 2.998451e+00 2.847092e+00
      vertex -2.113485e+00 2.998451e+00 5.990281e+00
    endloop
  endfacet
  facet normal 0.000000e+00 -1.000000e+00 1.224647e-16
    outer loop
      vertex -2.113485e+00 2.998451e+00 2.847092e+00
      vertex 1.931828e+00 2.998451e+00 5.990281e+00
      vertex -2.113485e+00 2.998451e+00 5.990281e+00
    endloop
  endfacet
  facet normal 8.660254e-01 5.000000e-01 -6.123234e-17
    outer loop
      vertex -3.398100e+00 -1.783218e+00 2.847092e+00
      vertex -2.113486e+00 -4.008236e+00 5.990276e+00
      vertex -2.113486e+00 -4.008236e+00 2.847092e+00
    endloop
  endfacet
  facet normal 0.000000e+00 1.000000e+00 -1.224647e-16
    outer loop
      vertex 1.931828e+00 -4.008236e+00 2.847092e+00
      vertex -2.113486e+00 -4.008236e+00 5.990276e+00
      vertex 1.931828e+00 -4.008236e+00 5.990276e+00
    endloop
  endfacet
  facet normal -8.660254e-01 5.000000e-01 -6.123234e-17
    outer loop
      vertex 1.931828e+00 -4.008236e+00 5.990276e+00
      vertex 3.398100e+00 -1.468578e+00 2.847092e+00
      vertex 1.931828e+00 -4.008236e+00 2.847092e+00
    endloop
  endfacet
  facet normal -8.660251e-01 -5.000006e-01 6.123242e-17
    outer loop
      vertex 1.931828e+00 2.998451e+00 2.847092e+00
      vertex 3.398100e+00 4.587975e-01 5.990280e+00
      vertex 1.931828e+00 2.998451e+00 5.990281e+00
    endloop
  endfacet
endsolid Default
